<?xml version="1.0" standalone="no"?>
<!DOCTYPE svg PUBLIC "-//W3C//DTD SVG 20010904//EN"
 "http://www.w3.org/TR/2001/REC-SVG-20010904/DTD/svg10.dtd">
<svg version="1.0" xmlns="http://www.w3.org/2000/svg"
 width="582.000000pt" height="582.000000pt" viewBox="0 0 582.000000 582.000000"
 preserveAspectRatio="xMidYMid meet">
<metadata>
Created by potrace 1.11, written by Peter Selinger 2001-2013
</metadata>
<g transform="translate(0.000000,582.000000) scale(0.100000,-0.100000)"
fill="#000000" stroke="none">
<path d="M0 2910 l0 -2910 2910 0 2910 0 0 2910 0 2910 -2910 0 -2910 0 0
-2910z m3485 1191 c539 -66 926 -189 1097 -349 69 -65 88 -110 88 -215 0 -48
2 -87 5 -87 3 0 34 9 68 21 84 29 154 23 241 -20 223 -110 329 -339 296 -642
-24 -225 -64 -323 -180 -439 -46 -47 -99 -89 -138 -109 l-63 -33 94 -57 c170
-104 301 -218 376 -330 71 -104 95 -168 110 -291 33 -260 -92 -486 -381 -691
-333 -237 -723 -418 -1068 -498 -108 -25 -365 -66 -540 -87 -89 -10 -157 -24
-199 -40 -124 -49 -230 -31 -466 80 -93 44 -139 60 -162 58 l-33 -3 25 -25
c13 -13 31 -24 40 -24 8 0 15 -4 15 -10 0 -5 7 -10 15 -10 15 0 65 -42 65 -55
0 -17 -292 2 -520 36 -617 90 -1168 274 -1489 496 -108 75 -300 242 -357 312
-67 79 -128 203 -145 289 -16 86 -7 232 20 306 89 252 384 491 814 661 93 37
98 40 93 64 -16 75 -61 422 -101 777 -51 460 -52 451 31 543 162 180 651 332
1224 381 69 5 141 12 160 14 19 2 206 3 415 1 308 -3 412 -7 550 -24z"/>
<path d="M2780 3970 c0 -5 5 -10 11 -10 5 0 7 5 4 10 -3 6 -8 10 -11 10 -2 0
-4 -4 -4 -10z"/>
<path d="M2955 3970 c-3 -5 -15 -10 -26 -10 -14 0 -19 -6 -17 -17 5 -25 29
-28 35 -4 3 11 9 19 13 16 5 -3 11 -1 14 4 4 5 2 12 -3 15 -5 4 -12 2 -16 -4z"/>
<path d="M2665 3960 c4 -6 11 -8 16 -5 14 9 11 15 -7 15 -8 0 -12 -5 -9 -10z"/>
<path d="M3085 3960 c-3 -5 -1 -10 4 -10 6 0 11 5 11 10 0 6 -2 10 -4 10 -3 0
-8 -4 -11 -10z"/>
<path d="M2830 3952 c0 -4 -15 -12 -32 -17 -23 -7 -34 -17 -36 -33 -3 -22 0
-23 37 -21 23 2 46 -2 53 -9 19 -19 35 -14 34 11 -1 16 -7 22 -24 21 -12 0
-22 5 -22 12 0 7 -9 10 -22 8 -16 -3 -14 -1 6 7 22 9 30 9 38 -2 8 -11 8 -10
4 4 -3 10 -6 21 -6 23 0 2 -7 4 -15 4 -8 0 -15 -4 -15 -8z"/>
<path d="M3018 3953 c0 -5 -2 -12 -3 -18 -2 -5 -3 -15 -4 -21 0 -6 -12 -9 -25
-7 -36 7 -88 -23 -84 -50 3 -31 -9 -47 -36 -47 -28 0 -50 -24 -42 -46 9 -23
58 -14 72 13 6 13 14 20 17 17 4 -4 9 1 13 10 3 9 16 16 28 16 12 0 30 6 41
14 11 7 24 14 28 14 13 1 22 12 9 12 -20 0 -17 34 6 57 13 13 20 28 17 33 -7
12 -34 13 -37 3z m-18 -63 c0 -5 -9 -10 -20 -10 -11 0 -20 5 -20 10 0 6 9 10
20 10 11 0 20 -4 20 -10z m-113 -96 c-3 -3 -12 -4 -19 -1 -8 3 -5 6 6 6 11 1
17 -2 13 -5z"/>
<path d="M3140 3952 c0 -5 7 -13 16 -16 10 -4 14 -1 12 6 -5 15 -28 23 -28 10z"/>
<path d="M3200 3951 c0 -6 5 -13 10 -16 6 -3 10 1 10 9 0 9 -4 16 -10 16 -5 0
-10 -4 -10 -9z"/>
<path d="M3283 3953 c-31 -6 -29 -25 3 -40 24 -11 26 -10 21 7 -3 11 -1 20 4
20 5 0 9 5 9 10 0 6 -3 9 -7 9 -5 -1 -18 -4 -30 -6z"/>
<path d="M2391 3941 c-21 -14 -6 -38 23 -38 14 0 26 3 26 8 0 5 -4 9 -10 9 -5
0 -10 7 -10 15 0 17 -9 19 -29 6z"/>
<path d="M2570 3940 c0 -5 4 -10 9 -10 6 0 13 5 16 10 3 6 -1 10 -9 10 -9 0
-16 -4 -16 -10z"/>
<path d="M2720 3940 c0 -5 5 -10 10 -10 6 0 10 5 10 10 0 6 -4 10 -10 10 -5 0
-10 -4 -10 -10z"/>
<path d="M2975 3940 c-3 -5 -1 -10 4 -10 6 0 11 5 11 10 0 6 -2 10 -4 10 -3 0
-8 -4 -11 -10z"/>
<path d="M3365 3941 c-3 -5 -1 -12 5 -16 5 -3 10 1 10 9 0 18 -6 21 -15 7z"/>
<path d="M3413 3943 c-21 -7 -15 -33 7 -33 11 0 20 6 20 14 0 18 -11 25 -27
19z"/>
<path d="M2493 3923 c-12 -10 -24 -28 -28 -40 -6 -20 -3 -23 22 -23 37 1 76
31 71 56 -4 25 -40 29 -65 7z"/>
<path d="M2618 3924 c-49 -26 -30 -74 28 -74 21 0 43 9 59 24 25 24 26 25 8
45 -20 24 -57 26 -95 5z m72 -4 c0 -5 -9 -10 -20 -10 -11 0 -20 5 -20 10 0 6
9 10 20 10 11 0 20 -4 20 -10z"/>
<path d="M3080 3917 c-19 -10 -25 -20 -25 -47 0 -29 -5 -37 -28 -47 -44 -20
-32 -48 21 -49 39 -2 42 0 36 20 -8 26 -8 26 1 54 4 12 13 22 21 22 7 0 26 12
41 27 26 24 26 26 6 20 -13 -3 -26 -1 -29 4 -7 12 -14 11 -44 -4z m40 -1 c0
-3 -4 -8 -10 -11 -5 -3 -10 -1 -10 4 0 6 5 11 10 11 6 0 10 -2 10 -4z"/>
<path d="M2890 3910 c0 -5 5 -10 10 -10 6 0 10 5 10 10 0 6 -4 10 -10 10 -5 0
-10 -4 -10 -10z"/>
<path d="M3450 3910 c0 -5 5 -10 10 -10 6 0 10 5 10 10 0 6 -4 10 -10 10 -5 0
-10 -4 -10 -10z"/>
<path d="M3550 3910 c0 -5 5 -10 10 -10 6 0 10 5 10 10 0 6 -4 10 -10 10 -5 0
-10 -4 -10 -10z"/>
<path d="M2249 3905 c-6 -23 -3 -72 4 -82 5 -7 26 -13 46 -14 l36 -1 -29 -8
c-16 -5 -33 -15 -37 -22 -20 -31 46 -53 71 -23 7 8 10 26 8 40 -3 14 1 30 8
36 8 6 14 22 14 34 0 25 -37 41 -71 30 -11 -4 -19 -2 -19 4 0 11 -29 16 -31 6z
m96 -25 c3 -5 -3 -10 -14 -10 -12 0 -21 5 -21 10 0 6 6 10 14 10 8 0 18 -4 21
-10z"/>
<path d="M3168 3892 c-7 -10 -21 -21 -30 -25 -21 -7 -23 -23 -6 -33 6 -4 16 0
23 9 7 10 20 14 33 10 18 -4 20 -8 11 -19 -8 -10 -8 -14 0 -14 6 0 11 4 11 8
0 5 10 21 23 36 16 19 29 25 43 21 18 -6 18 -6 -1 6 -25 17 -58 22 -50 9 3 -5
1 -10 -4 -10 -6 0 -11 5 -11 10 0 17 -28 11 -42 -8z"/>
<path d="M3325 3896 c-21 -15 -14 -46 10 -46 8 0 15 -5 15 -12 0 -6 9 -3 20 7
22 20 26 50 8 61 -7 4 -8 3 -4 -4 4 -7 1 -12 -9 -12 -9 0 -13 5 -10 10 9 14
-8 12 -30 -4z"/>
<path d="M2130 3885 c0 -8 5 -15 10 -15 6 0 10 7 10 15 0 8 -4 15 -10 15 -5 0
-10 -7 -10 -15z"/>
<path d="M2170 3891 c0 -11 31 -24 39 -16 3 3 -1 10 -9 15 -19 12 -30 12 -30
1z"/>
<path d="M3665 3890 c-3 -5 -1 -10 4 -10 6 0 11 5 11 10 0 6 -2 10 -4 10 -3 0
-8 -4 -11 -10z"/>
<path d="M3499 3872 c-56 -28 -49 -71 11 -72 15 0 31 -5 38 -12 7 -7 13 -9 13
-5 2 12 6 22 13 40 12 26 -1 62 -23 64 -10 1 -34 -6 -52 -15z m56 -2 c3 -5 -3
-10 -15 -10 -12 0 -18 5 -15 10 3 6 10 10 15 10 5 0 12 -4 15 -10z"/>
<path d="M3613 3870 c-3 -11 -10 -20 -15 -20 -5 0 -7 -4 -3 -9 8 -14 64 21 58
36 -8 20 -34 15 -40 -7z"/>
<path d="M2550 3870 c0 -5 4 -10 9 -10 6 0 13 5 16 10 3 6 -1 10 -9 10 -9 0
-16 -4 -16 -10z"/>
<path d="M3405 3870 c-4 -7 -3 -16 3 -22 14 -14 45 -2 40 15 -6 16 -34 21 -43
7z"/>
<path d="M2390 3855 c-17 -21 -5 -45 23 -45 29 0 52 24 43 45 -7 19 -50 19
-66 0z"/>
<path d="M2705 3860 c-3 -5 1 -10 10 -10 9 0 13 5 10 10 -3 6 -8 10 -10 10 -2
0 -7 -4 -10 -10z"/>
<path d="M2767 3864 c-14 -14 -7 -35 11 -32 9 2 17 10 17 17 0 16 -18 25 -28
15z"/>
<path d="M2810 3860 c0 -5 5 -10 10 -10 6 0 10 5 10 10 0 6 -4 10 -10 10 -5 0
-10 -4 -10 -10z"/>
<path d="M3264 3856 c-18 -14 -18 -15 -1 -22 22 -8 46 11 31 26 -7 7 -17 5
-30 -4z"/>
<path d="M3835 3861 c-3 -5 -1 -12 5 -16 5 -3 10 1 10 9 0 18 -6 21 -15 7z"/>
<path d="M2015 3840 c-16 -18 -17 -22 -4 -34 20 -19 77 -28 85 -14 5 7 2 9 -8
6 -13 -5 -14 -3 -4 18 6 13 14 24 19 24 4 0 7 5 7 10 0 13 -32 9 -43 -5 -6 -6
-10 -6 -14 3 -7 17 -17 15 -38 -8z"/>
<path d="M3675 3840 c-24 -26 -13 -50 24 -50 35 0 55 26 40 53 -13 23 -42 22
-64 -3z m55 6 c0 -11 -19 -15 -25 -6 -3 5 1 10 9 10 9 0 16 -2 16 -4z"/>
<path d="M3755 3850 c-3 -5 1 -17 10 -26 18 -19 22 -17 27 11 3 21 -25 34 -37
15z"/>
<path d="M1922 3833 c2 -10 10 -18 18 -18 8 0 16 8 18 18 2 12 -3 17 -18 17
-15 0 -20 -5 -18 -17z"/>
<path d="M2193 3843 c-21 -8 -15 -27 12 -39 20 -10 27 -9 37 4 11 13 10 15 -4
9 -13 -5 -18 -1 -18 13 0 20 -5 23 -27 13z"/>
<path d="M2543 3838 c-27 -13 -31 -53 -6 -62 18 -7 93 23 93 38 0 4 -7 6 -15
2 -9 -3 -15 0 -15 8 0 11 -24 29 -33 25 -1 0 -12 -5 -24 -11z m37 -8 c0 -5 -4
-10 -10 -10 -5 0 -10 5 -10 10 0 6 5 10 10 10 6 0 10 -4 10 -10z"/>
<path d="M1970 3824 c0 -8 5 -12 10 -9 6 3 10 10 10 16 0 5 -4 9 -10 9 -5 0
-10 -7 -10 -16z"/>
<path d="M2121 3827 c-6 -8 -8 -17 -4 -20 11 -12 41 -7 46 7 10 27 -22 36 -42
13z"/>
<path d="M2655 3830 c-4 -6 -1 -17 5 -25 6 -8 9 -19 5 -25 -23 -37 77 -56 109
-21 32 36 9 67 -46 62 -9 -1 -19 3 -23 9 -8 13 -42 13 -50 0z m104 -31 c-15
-9 -32 -2 -24 11 3 5 13 6 21 3 12 -4 13 -8 3 -14z"/>
<path d="M2803 3825 c-3 -9 -3 -18 0 -22 10 -10 37 6 37 22 0 20 -29 20 -37 0z"/>
<path d="M2850 3830 c0 -5 5 -10 10 -10 6 0 10 5 10 10 0 6 -4 10 -10 10 -5 0
-10 -4 -10 -10z"/>
<path d="M3300 3830 c0 -5 5 -10 10 -10 6 0 10 5 10 10 0 6 -4 10 -10 10 -5 0
-10 -4 -10 -10z"/>
<path d="M3375 3830 c-3 -5 1 -10 9 -10 9 0 16 5 16 10 0 6 -4 10 -9 10 -6 0
-13 -4 -16 -10z"/>
<path d="M3943 3833 c-21 -7 -15 -33 7 -33 11 0 20 6 20 14 0 18 -11 25 -27
19z"/>
<path d="M2465 3819 c-4 -6 -5 -13 -2 -16 7 -7 27 6 27 18 0 12 -17 12 -25 -2z"/>
<path d="M3148 3813 c-33 -16 -37 -33 -8 -33 11 0 20 6 20 14 0 8 6 16 13 19
6 2 10 6 7 9 -3 2 -17 -2 -32 -9z"/>
<path d="M3430 3819 c0 -5 5 -7 10 -4 6 3 10 8 10 11 0 2 -4 4 -10 4 -5 0 -10
-5 -10 -11z"/>
<path d="M3820 3821 c0 -5 7 -11 14 -14 10 -4 13 -1 9 9 -6 15 -23 19 -23 5z"/>
<path d="M3885 3820 c3 -5 8 -10 11 -10 2 0 4 5 4 10 0 6 -5 10 -11 10 -5 0
-7 -4 -4 -10z"/>
<path d="M3090 3809 c0 -5 5 -7 10 -4 6 3 10 8 10 11 0 2 -4 4 -10 4 -5 0 -10
-5 -10 -11z"/>
<path d="M1945 3800 c-3 -5 1 -10 10 -10 9 0 13 5 10 10 -3 6 -8 10 -10 10 -2
0 -7 -4 -10 -10z"/>
<path d="M2932 3794 c-27 -19 -28 -34 -2 -34 11 0 20 7 20 15 0 8 5 15 10 15
6 0 10 5 10 10 0 14 -12 12 -38 -6z"/>
<path d="M3598 3803 c-26 -7 -24 -53 2 -60 11 -3 18 -9 15 -13 -3 -5 -1 -11 5
-15 5 -3 10 0 10 8 0 8 7 18 16 21 10 4 14 15 12 33 -3 29 -22 37 -60 26z m49
-9 c-3 -3 -12 -4 -19 -1 -8 3 -5 6 6 6 11 1 17 -2 13 -5z"/>
<path d="M4000 3795 c-10 -12 -10 -15 4 -15 9 0 16 7 16 15 0 8 -2 15 -4 15
-2 0 -9 -7 -16 -15z"/>
<path d="M1721 3778 c-11 -30 -8 -33 28 -17 35 15 38 24 15 33 -26 10 -34 7
-43 -16z"/>
<path d="M1833 3793 c-21 -8 -15 -33 7 -33 13 0 20 7 20 20 0 20 -5 23 -27 13z"/>
<path d="M1900 3789 c0 -5 5 -7 10 -4 6 3 10 8 10 11 0 2 -4 4 -10 4 -5 0 -10
-5 -10 -11z"/>
<path d="M2398 3789 c-10 -5 -18 -19 -18 -29 0 -16 7 -20 33 -20 19 0 37 3 41
7 4 4 15 8 24 8 9 0 18 9 20 19 3 15 0 18 -17 13 -12 -3 -24 -1 -27 4 -7 12
-35 11 -56 -2z"/>
<path d="M3866 3793 c-4 -4 -23 -6 -42 -4 -45 4 -86 -22 -82 -52 3 -19 9 -22
53 -22 43 0 51 3 60 23 8 17 16 21 33 17 25 -6 27 -2 12 26 -11 20 -22 24 -34
12z m-34 -25 c-9 -9 -15 -9 -24 0 -9 9 -7 12 12 12 19 0 21 -3 12 -12z"/>
<path d="M4050 3790 c0 -5 5 -10 10 -10 6 0 10 5 10 10 0 6 -4 10 -10 10 -5 0
-10 -4 -10 -10z"/>
<path d="M2158 3776 c-22 -16 -23 -36 -3 -36 12 0 35 28 35 44 0 10 -14 6 -32
-8z"/>
<path d="M2621 3781 c-16 -10 -6 -31 14 -31 7 0 15 -5 17 -12 3 -9 6 -9 12 0
4 7 2 12 -3 12 -6 0 -11 9 -11 20 0 22 -7 25 -29 11z"/>
<path d="M3215 3774 c-33 -8 -87 -24 -120 -35 -100 -35 -218 -49 -411 -49
-353 0 -751 -56 -1029 -144 -132 -42 -215 -112 -232 -196 -6 -35 -8 -34 167
-95 225 -78 526 -139 816 -165 113 -10 129 -9 245 14 212 42 291 49 469 42 91
-3 192 -11 225 -16 93 -16 168 -13 329 14 177 31 285 56 424 98 101 31 105 33
159 95 l55 63 -13 44 c-9 32 -17 42 -28 38 -8 -3 -12 -1 -8 4 3 5 -2 10 -11
11 -9 1 -41 9 -71 17 -63 18 -179 33 -308 40 -117 6 -167 28 -241 104 -65 67
-115 96 -204 117 -77 18 -134 18 -213 -1z"/>
<path d="M1960 3771 c-8 -6 -17 -8 -21 -6 -3 3 -6 -10 -5 -27 1 -28 5 -33 33
-39 20 -4 43 -1 59 7 14 8 33 14 40 14 8 0 14 7 14 15 0 8 -7 15 -15 15 -9 0
-18 7 -21 15 -7 17 -60 20 -84 6z m65 -11 c-3 -5 -13 -10 -21 -10 -8 0 -14 5
-14 10 0 6 9 10 21 10 11 0 17 -4 14 -10z"/>
<path d="M3710 3770 c0 -5 5 -10 10 -10 6 0 10 5 10 10 0 6 -4 10 -10 10 -5 0
-10 -4 -10 -10z"/>
<path d="M1883 3755 c-8 -9 -9 -16 -3 -20 6 -3 13 1 16 10 9 21 2 26 -13 10z"/>
<path d="M2515 3760 c-3 -5 -1 -10 4 -10 6 0 11 5 11 10 0 6 -2 10 -4 10 -3 0
-8 -4 -11 -10z"/>
<path d="M2970 3759 c0 -5 5 -7 10 -4 6 3 10 8 10 11 0 2 -4 4 -10 4 -5 0 -10
-5 -10 -11z"/>
<path d="M4055 3757 c-13 -7 -19 -20 -17 -31 2 -10 -2 -22 -9 -27 -7 -4 -10
-12 -5 -16 5 -4 11 -2 13 4 3 8 14 11 27 7 29 -7 58 20 54 50 -4 25 -34 31
-63 13z m45 -7 c0 -5 -4 -10 -10 -10 -5 0 -10 5 -10 10 0 6 5 10 10 10 6 0 10
-4 10 -10z"/>
<path d="M1597 3754 c-14 -14 -7 -25 13 -22 12 2 21 8 21 13 0 12 -24 18 -34
9z"/>
<path d="M1660 3750 c0 -5 5 -10 10 -10 6 0 10 5 10 10 0 6 -4 10 -10 10 -5 0
-10 -4 -10 -10z"/>
<path d="M1775 3750 c-3 -5 1 -10 10 -10 9 0 13 5 10 10 -3 6 -8 10 -10 10 -2
0 -7 -4 -10 -10z"/>
<path d="M2785 3750 c-3 -5 -1 -10 4 -10 6 0 11 5 11 10 0 6 -2 10 -4 10 -3 0
-8 -4 -11 -10z"/>
<path d="M3664 3748 c-4 -6 1 -17 11 -25 27 -19 33 -16 27 12 -5 26 -26 33
-38 13z"/>
<path d="M3943 3753 c-21 -7 -15 -33 7 -33 11 0 20 6 20 14 0 18 -11 25 -27
19z"/>
<path d="M3995 3750 c4 -6 11 -8 16 -5 14 9 11 15 -7 15 -8 0 -12 -5 -9 -10z"/>
<path d="M2090 3739 c0 -5 5 -7 10 -4 6 3 10 8 10 11 0 2 -4 4 -10 4 -5 0 -10
-5 -10 -11z"/>
<path d="M2200 3735 c0 -18 33 -20 48 -2 9 10 4 13 -19 15 -20 2 -29 -2 -29
-13z"/>
<path d="M2570 3740 c0 -5 5 -10 10 -10 6 0 10 5 10 10 0 6 -4 10 -10 10 -5 0
-10 -4 -10 -10z"/>
<path d="M4140 3741 c0 -5 7 -11 14 -14 10 -4 13 -1 9 9 -6 15 -23 19 -23 5z"/>
<path d="M1560 3730 c0 -5 5 -10 10 -10 6 0 10 5 10 10 0 6 -4 10 -10 10 -5 0
-10 -4 -10 -10z"/>
<path d="M1821 3721 c-14 -10 -22 -25 -19 -37 4 -22 43 -31 63 -14 9 7 15 8
20 0 11 -18 35 -11 35 11 0 15 -5 19 -18 15 -12 -4 -21 1 -27 16 -13 29 -25
31 -54 9z m44 -1 c3 -5 -1 -10 -10 -10 -9 0 -13 5 -10 10 3 6 8 10 10 10 2 0
7 -4 10 -10z"/>
<path d="M2350 3730 c0 -5 5 -10 10 -10 6 0 10 5 10 10 0 6 -4 10 -10 10 -5 0
-10 -4 -10 -10z"/>
<path d="M2455 3730 c-3 -5 -1 -10 4 -10 6 0 11 5 11 10 0 6 -2 10 -4 10 -3 0
-8 -4 -11 -10z"/>
<path d="M4187 3733 c-4 -3 -7 -18 -7 -31 0 -24 1 -25 20 -7 11 10 20 24 20
32 0 14 -22 18 -33 6z"/>
<path d="M1714 3719 c-7 -12 15 -31 28 -23 4 3 8 12 8 20 0 17 -26 19 -36 3z"/>
<path d="M3855 3720 c-4 -6 -2 -17 4 -24 6 -7 8 -15 5 -18 -8 -9 -44 3 -44 15
0 12 -8 6 -10 -8 -1 -5 -8 -18 -17 -27 -24 -27 -9 -50 29 -46 28 2 34 8 36 31
2 15 9 27 17 27 8 0 12 6 9 14 -3 8 0 17 5 21 6 3 9 11 6 16 -8 12 -32 12 -40
-1z m-5 -54 c0 -11 -19 -15 -25 -6 -3 5 1 10 9 10 9 0 16 -2 16 -4z"/>
<path d="M2117 3714 c-14 -14 -7 -35 11 -32 9 2 17 10 17 17 0 16 -18 25 -28
15z"/>
<path d="M2300 3709 c0 -5 5 -7 10 -4 6 3 10 8 10 11 0 2 -4 4 -10 4 -5 0 -10
-5 -10 -11z"/>
<path d="M3980 3710 c0 -5 5 -10 10 -10 6 0 10 5 10 10 0 6 -4 10 -10 10 -5 0
-10 -4 -10 -10z"/>
<path d="M4240 3710 c0 -5 5 -10 10 -10 6 0 10 5 10 10 0 6 -4 10 -10 10 -5 0
-10 -4 -10 -10z"/>
<path d="M1524 3695 c-60 -25 -51 -75 15 -75 37 1 71 19 71 38 0 6 9 16 21 22
11 7 18 14 15 18 -12 12 -92 10 -122 -3z m61 -5 c3 -5 -3 -10 -14 -10 -12 0
-21 5 -21 10 0 6 6 10 14 10 8 0 18 -4 21 -10z"/>
<path d="M1775 3700 c3 -5 8 -10 11 -10 2 0 4 5 4 10 0 6 -5 10 -11 10 -5 0
-7 -4 -4 -10z"/>
<path d="M2240 3700 c0 -5 5 -10 10 -10 6 0 10 5 10 10 0 6 -4 10 -10 10 -5 0
-10 -4 -10 -10z"/>
<path d="M2185 3690 c-3 -5 -2 -10 4 -10 5 0 13 5 16 10 3 6 2 10 -4 10 -5 0
-13 -4 -16 -10z"/>
<path d="M3655 3690 c-3 -5 -1 -10 4 -10 6 0 11 5 11 10 0 6 -2 10 -4 10 -3 0
-8 -4 -11 -10z"/>
<path d="M3940 3690 c0 -5 5 -10 10 -10 6 0 10 5 10 10 0 6 -4 10 -10 10 -5 0
-10 -4 -10 -10z"/>
<path d="M4123 3685 c-3 -9 -3 -18 0 -22 10 -10 37 6 37 22 0 20 -29 20 -37 0z"/>
<path d="M1670 3672 c-60 -39 -50 -84 15 -68 26 7 32 31 17 67 -6 15 -9 15
-32 1z m25 -12 c3 -5 -1 -10 -10 -10 -9 0 -13 5 -10 10 3 6 8 10 10 10 2 0 7
-4 10 -10z"/>
<path d="M1945 3680 c-3 -5 -1 -10 4 -10 6 0 11 5 11 10 0 6 -2 10 -4 10 -3 0
-8 -4 -11 -10z"/>
<path d="M3697 3683 c-13 -12 -7 -23 13 -23 11 0 20 6 20 13 0 8 3 7 10 -3 5
-8 12 -11 17 -7 9 10 -15 27 -38 27 -9 0 -19 -3 -22 -7z"/>
<path d="M3910 3679 c0 -5 5 -7 10 -4 6 3 10 8 10 11 0 2 -4 4 -10 4 -5 0 -10
-5 -10 -11z"/>
<path d="M4270 3683 c-51 -8 -77 -25 -92 -59 l-16 -36 24 6 c24 6 34 -8 12
-17 -10 -3 -10 -8 -2 -16 13 -14 46 -3 41 12 -2 6 10 18 27 27 24 12 31 22 31
45 0 17 7 33 15 37 13 6 13 7 0 6 -8 0 -26 -3 -40 -5z m10 -23 c0 -5 -9 -10
-20 -10 -11 0 -20 5 -20 10 0 6 9 10 20 10 11 0 20 -4 20 -10z"/>
<path d="M1410 3666 c0 -8 6 -16 13 -19 6 -2 8 -8 4 -13 -4 -5 -12 -2 -17 6
-7 11 -11 11 -24 1 -21 -18 -20 -37 4 -61 33 -33 55 -26 57 18 3 37 -13 82
-29 82 -4 0 -8 -6 -8 -14z"/>
<path d="M1741 3667 c-12 -15 -5 -27 16 -27 7 0 13 9 13 20 0 23 -13 26 -29 7z"/>
<path d="M2030 3670 c0 -5 5 -10 10 -10 6 0 10 5 10 10 0 6 -4 10 -10 10 -5 0
-10 -4 -10 -10z"/>
<path d="M3980 3655 c-7 -8 -10 -25 -6 -39 5 -21 10 -23 33 -17 31 8 49 32 40
55 -8 20 -50 21 -67 1z m57 -1 c-3 -3 -12 -4 -19 -1 -8 3 -5 6 6 6 11 1 17 -2
13 -5z"/>
<path d="M4080 3660 c0 -5 5 -10 11 -10 5 0 7 5 4 10 -3 6 -8 10 -11 10 -2 0
-4 -4 -4 -10z"/>
<path d="M4330 3644 c0 -8 5 -12 10 -9 6 3 10 10 10 16 0 5 -4 9 -10 9 -5 0
-10 -7 -10 -16z"/>
<path d="M1790 3640 c0 -5 5 -10 10 -10 6 0 10 5 10 10 0 6 -4 10 -10 10 -5 0
-10 -4 -10 -10z"/>
<path d="M3874 3639 c-8 -14 16 -30 31 -21 5 4 13 7 18 8 20 4 20 6 2 14 -28
12 -43 12 -51 -1z"/>
<path d="M3700 3630 c0 -5 5 -10 10 -10 6 0 10 5 10 10 0 6 -4 10 -10 10 -5 0
-10 -4 -10 -10z"/>
<path d="M4120 3625 c-10 -12 -9 -16 5 -21 19 -8 40 9 31 25 -10 15 -21 14
-36 -4z"/>
<path d="M1325 3620 c4 -6 11 -8 16 -5 14 9 11 15 -7 15 -8 0 -12 -5 -9 -10z"/>
<path d="M1725 3620 c-3 -5 -1 -10 4 -10 6 0 11 5 11 10 0 6 -2 10 -4 10 -3 0
-8 -4 -11 -10z"/>
<path d="M4350 3620 c0 -5 5 -10 10 -10 6 0 10 5 10 10 0 6 -4 10 -10 10 -5 0
-10 -4 -10 -10z"/>
<path d="M1470 3598 c0 -19 2 -20 10 -8 13 19 13 30 0 30 -5 0 -10 -10 -10
-22z"/>
<path d="M3745 3610 c-3 -5 -1 -10 4 -10 6 0 11 5 11 10 0 6 -2 10 -4 10 -3 0
-8 -4 -11 -10z"/>
<path d="M1283 3603 c-21 -8 -15 -33 7 -33 13 0 20 7 20 20 0 20 -5 23 -27 13z"/>
<path d="M4352 3594 c-27 -19 -28 -44 -2 -51 11 -3 20 -10 20 -15 0 -5 7 -2
16 6 8 9 19 14 24 11 12 -7 9 37 -3 53 -13 16 -28 15 -55 -4z m48 2 c0 -3 -4
-8 -10 -11 -5 -3 -10 -1 -10 4 0 6 5 11 10 11 6 0 10 -2 10 -4z"/>
<path d="M1496 3581 c-23 -25 -11 -51 25 -51 31 0 53 28 43 54 -8 22 -47 20
-68 -3z"/>
<path d="M3855 3590 c-3 -5 1 -10 10 -10 9 0 13 5 10 10 -3 6 -8 10 -10 10 -2
0 -7 -4 -10 -10z"/>
<path d="M4070 3590 c0 -5 5 -10 10 -10 6 0 10 5 10 10 0 6 -4 10 -10 10 -5 0
-10 -4 -10 -10z"/>
<path d="M4295 3590 c-3 -5 -1 -10 4 -10 6 0 11 5 11 10 0 6 -2 10 -4 10 -3 0
-8 -4 -11 -10z"/>
<path d="M3930 3580 c0 -5 5 -10 10 -10 6 0 10 5 10 10 0 6 -4 10 -10 10 -5 0
-10 -4 -10 -10z"/>
<path d="M4030 3580 c0 -5 5 -10 10 -10 6 0 10 5 10 10 0 6 -4 10 -10 10 -5 0
-10 -4 -10 -10z"/>
<path d="M4447 3584 c-14 -14 -7 -35 11 -32 9 2 17 10 17 17 0 16 -18 25 -28
15z"/>
<path d="M1330 3570 c0 -5 5 -10 10 -10 6 0 10 5 10 10 0 6 -4 10 -10 10 -5 0
-10 -4 -10 -10z"/>
<path d="M1590 3569 c0 -5 5 -7 10 -4 6 3 10 8 10 11 0 2 -4 4 -10 4 -5 0 -10
-5 -10 -11z"/>
<path d="M4125 3570 c3 -5 8 -10 11 -10 2 0 4 5 4 10 0 6 -5 10 -11 10 -5 0
-7 -4 -4 -10z"/>
<path d="M1187 3548 c-33 -24 -34 -34 -2 -40 31 -6 37 0 25 23 -8 13 -6 18 8
21 9 2 12 6 7 10 -6 3 -23 -3 -38 -14z"/>
<path d="M1365 3560 c-3 -5 1 -10 10 -10 9 0 13 5 10 10 -3 6 -8 10 -10 10 -2
0 -7 -4 -10 -10z"/>
<path d="M1260 3550 c0 -6 12 -10 27 -10 29 0 24 12 -7 17 -11 2 -20 -2 -20
-7z"/>
<path d="M4274 3549 c-3 -6 -2 -15 4 -21 13 -13 32 -2 32 18 0 16 -26 19 -36
3z"/>
<path d="M4480 3543 c0 -7 -9 -13 -20 -13 -24 0 -70 -20 -70 -31 0 -5 -6 -6
-13 -3 -15 5 -43 -21 -30 -29 4 -2 28 -9 53 -16 80 -22 121 11 94 74 -7 17
-13 24 -14 18z m0 -33 c0 -5 -7 -10 -15 -10 -8 0 -15 5 -15 10 0 6 7 10 15 10
8 0 15 -4 15 -10z"/>
<path d="M1338 3524 c-56 -29 -15 -87 49 -69 15 5 33 7 39 7 7 -2 9 8 7 22 -4
21 -2 24 16 19 16 -4 21 -1 21 13 0 16 -9 19 -53 21 -29 1 -64 -5 -79 -13z
m72 -4 c0 -5 -9 -10 -20 -10 -11 0 -20 5 -20 10 0 6 9 10 20 10 11 0 20 -4 20
-10z"/>
<path d="M4230 3530 c0 -5 5 -10 10 -10 6 0 10 5 10 10 0 6 -4 10 -10 10 -5 0
-10 -4 -10 -10z"/>
<path d="M1251 3511 c-7 -5 -10 -14 -6 -20 4 -7 0 -23 -9 -36 -21 -32 -20 -35
5 -35 16 0 20 5 16 20 -3 11 3 29 14 41 26 30 12 50 -20 30z"/>
<path d="M4310 3500 c0 -5 5 -10 10 -10 6 0 10 5 10 10 0 6 -4 10 -10 10 -5 0
-10 -4 -10 -10z"/>
<path d="M4547 3496 c-4 -10 -5 -21 -2 -24 9 -9 17 6 13 25 -3 17 -4 17 -11
-1z"/>
<path d="M1140 3490 c0 -5 5 -10 10 -10 6 0 10 5 10 10 0 6 -4 10 -10 10 -5 0
-10 -4 -10 -10z"/>
<path d="M1190 3465 c0 -8 9 -15 20 -15 11 0 20 7 20 15 0 8 -9 15 -20 15 -11
0 -20 -7 -20 -15z"/>
<path d="M1280 3439 c0 -5 5 -7 10 -4 6 3 10 8 10 11 0 2 -4 4 -10 4 -5 0 -10
-5 -10 -11z"/>
<path d="M4495 3440 c-3 -5 1 -10 10 -10 9 0 13 5 10 10 -3 6 -8 10 -10 10 -2
0 -7 -4 -10 -10z"/>
<path d="M1360 3430 c0 -5 5 -10 10 -10 6 0 10 5 10 10 0 6 -4 10 -10 10 -5 0
-10 -4 -10 -10z"/>
<path d="M1314 3419 c-8 -14 11 -33 25 -25 6 4 11 14 11 22 0 16 -26 19 -36 3z"/>
<path d="M4380 3419 c0 -5 5 -7 10 -4 6 3 10 8 10 11 0 2 -4 4 -10 4 -5 0 -10
-5 -10 -11z"/>
<path d="M4415 3420 c-4 -7 3 -9 20 -6 37 7 44 16 12 16 -14 0 -29 -5 -32 -10z"/>
<path d="M1380 3392 c0 -8 -15 -12 -54 -13 -18 0 -18 0 0 -14 27 -21 40 -18
58 10 9 14 12 25 6 25 -5 0 -10 -4 -10 -8z"/>
<path d="M4367 3394 c-14 -14 -7 -25 13 -22 12 2 21 8 21 13 0 12 -24 18 -34
9z"/>
<path d="M4335 3361 c-3 -5 -1 -12 5 -16 5 -3 10 1 10 9 0 18 -6 21 -15 7z"/>
<path d="M4285 3330 c-3 -5 -1 -10 4 -10 6 0 11 5 11 10 0 6 -2 10 -4 10 -3 0
-8 -4 -11 -10z"/>
<path d="M4880 3301 c-51 -16 -88 -41 -137 -95 -60 -65 -83 -111 -83 -164 0
-56 -34 -302 -65 -467 -42 -223 -41 -201 -7 -213 66 -23 274 83 343 175 49 64
84 136 105 214 25 92 23 259 -4 372 -25 102 -42 138 -78 166 -29 22 -35 23
-74 12z"/>
<path d="M3033 3130 c-25 -10 -30 -25 -12 -35 6 -4 19 2 30 14 30 32 25 38
-18 21z"/>
<path d="M2880 3125 c0 -3 5 -15 10 -26 14 -25 40 -25 40 1 0 11 -4 20 -9 20
-5 0 -16 3 -25 6 -9 3 -16 3 -16 -1z"/>
<path d="M3120 3120 c0 -5 5 -10 10 -10 6 0 10 5 10 10 0 6 -4 10 -10 10 -5 0
-10 -4 -10 -10z"/>
<path d="M2845 3110 c-3 -5 -1 -10 4 -10 6 0 11 5 11 10 0 6 -2 10 -4 10 -3 0
-8 -4 -11 -10z"/>
<path d="M2970 3113 c0 -14 19 -38 25 -32 8 8 -5 39 -16 39 -5 0 -9 -3 -9 -7z"/>
<path d="M3087 3113 c-3 -3 1 -12 9 -20 8 -9 18 -13 21 -10 3 3 -1 13 -10 21
-8 8 -17 12 -20 9z"/>
<path d="M3147 3113 c-14 -13 -6 -24 15 -21 27 4 36 28 11 28 -11 0 -23 -3
-26 -7z"/>
<path d="M3205 3110 c4 -6 11 -8 16 -5 14 9 11 15 -7 15 -8 0 -12 -5 -9 -10z"/>
<path d="M3250 3110 c0 -5 5 -10 10 -10 6 0 10 5 10 10 0 6 -4 10 -10 10 -5 0
-10 -4 -10 -10z"/>
<path d="M2783 3095 c-3 -9 -3 -18 0 -22 10 -10 37 6 37 22 0 20 -29 20 -37 0z"/>
<path d="M2940 3100 c0 -5 5 -10 10 -10 6 0 10 5 10 10 0 6 -4 10 -10 10 -5 0
-10 -4 -10 -10z"/>
<path d="M2685 3090 c-3 -5 -1 -10 4 -10 6 0 11 5 11 10 0 6 -2 10 -4 10 -3 0
-8 -4 -11 -10z"/>
<path d="M2715 3090 c-3 -5 1 -10 9 -10 9 0 16 5 16 10 0 6 -4 10 -9 10 -6 0
-13 -4 -16 -10z"/>
<path d="M2750 3089 c0 -5 5 -7 10 -4 6 3 10 8 10 11 0 2 -4 4 -10 4 -5 0 -10
-5 -10 -11z"/>
<path d="M560 1527 c-23 -68 -2 -177 57 -290 41 -77 89 -131 173 -195 60 -46
90 -68 135 -104 76 -61 145 -87 175 -68 26 17 -21 47 -187 120 -29 13 -53 27
-53 32 0 4 -7 8 -16 8 -20 0 -80 61 -89 91 -4 12 -9 36 -10 53 -2 17 -13 57
-24 88 -12 32 -21 64 -21 71 0 7 -18 49 -40 92 -22 43 -40 89 -40 101 0 15 -7
23 -25 26 -20 4 -26 0 -35 -25z"/>
<path d="M1790 1250 c34 -49 85 -96 120 -110 17 -7 30 -17 30 -22 0 -5 4 -7 9
-3 5 3 16 0 23 -7 21 -20 56 -38 73 -38 8 0 15 -4 15 -10 0 -5 16 -10 35 -10
19 0 35 -4 35 -9 0 -5 15 -11 33 -14 17 -4 48 -9 67 -12 19 -3 -5 8 -54 24
-49 17 -94 27 -99 24 -6 -3 -7 -2 -4 4 3 5 -22 23 -56 40 -57 28 -125 75 -217
150 l-35 28 25 -35z"/>
<path d="M2288 998 c6 -6 18 -8 28 -6 14 3 12 5 -9 10 -19 3 -25 2 -19 -4z"/>
<path d="M1612 859 l-73 -39 65 0 c36 0 66 4 66 10 0 5 47 11 108 12 l107 3
-70 22 c-113 35 -122 34 -203 -8z"/>
<path d="M1078 823 c7 -3 16 -2 19 1 4 3 -2 6 -13 5 -11 0 -14 -3 -6 -6z"/>
<path d="M1138 803 c6 -2 18 -2 25 0 6 3 1 5 -13 5 -14 0 -19 -2 -12 -5z"/>
<path d="M2480 476 c0 -8 15 -20 33 -27 31 -14 37 -15 57 -18 6 0 10 -8 10
-16 0 -8 10 -17 23 -19 12 -3 36 -7 52 -11 19 -4 -2 12 -57 43 -106 60 -118
65 -118 48z"/>
</g>
</svg>
